{
    "asset" : {
        "generator" : "Khronos glTF Blender I/O v3.3.27",
        "version" : "2.0"
    },
    "extensionsUsed" : [
        "KHR_materials_specular",
        "KHR_materials_ior"
    ],
    "scene" : 0,
    "scenes" : [
        {
            "name" : "Scene",
            "nodes" : [
                0,
                1,
                2
            ]
        }
    ],
    "nodes" : [
        {
            "mesh" : 0,
            "name" : "Assembly2_Wexteras_hus (1) (1).001",
            "rotation" : [
                0.7071068286895752,
                0,
                0,
                0.7071067094802856
            ],
            "scale" : [
                12.67847728729248,
                12.67847728729248,
                12.67847728729248
            ]
        },
        {
            "mesh" : 1,
            "name" : "Assembly2_Wexteras_hus_topp (1)",
            "rotation" : [
                0.7071068286895752,
                0,
                0,
                0.7071067094802856
            ],
            "scale" : [
                12.67847728729248,
                12.67847728729248,
                12.67847728729248
            ]
        },
        {
            "mesh" : 2,
            "name" : "Assembly2_Wexteras_hus_tak.001",
            "rotation" : [
                0.7071068286895752,
                0,
                0,
                0.7071067094802856
            ],
            "scale" : [
                12.67847728729248,
                12.67847728729248,
                12.67847728729248
            ]
        }
    ],
    "materials" : [
        {
            "doubleSided" : true,
            "extensions" : {
                "KHR_materials_specular" : {
                    "specularColorFactor" : [
                        0,
                        0,
                        0
                    ]
                },
                "KHR_materials_ior" : {
                    "ior" : 1.4500000476837158
                }
            },
            "name" : "191,191,191",
            "pbrMetallicRoughness" : {
                "baseColorFactor" : [
                    0.749019980430603,
                    0.749019980430603,
                    0.749019980430603,
                    1
                ],
                "metallicFactor" : 0,
                "roughnessFactor" : 0.45227745175361633
            }
        },
        {
            "doubleSided" : true,
            "extensions" : {
                "KHR_materials_specular" : {
                    "specularColorFactor" : [
                        0,
                        0,
                        0
                    ]
                },
                "KHR_materials_ior" : {
                    "ior" : 1.4500000476837158
                }
            },
            "name" : "191,191,191.001",
            "pbrMetallicRoughness" : {
                "baseColorFactor" : [
                    0.749019980430603,
                    0.749019980430603,
                    0.749019980430603,
                    1
                ],
                "metallicFactor" : 0,
                "roughnessFactor" : 0.45227745175361633
            }
        },
        {
            "doubleSided" : true,
            "extensions" : {
                "KHR_materials_specular" : {
                    "specularColorFactor" : [
                        0,
                        0,
                        0
                    ]
                },
                "KHR_materials_ior" : {
                    "ior" : 1.4500000476837158
                }
            },
            "name" : "191,191,191.002",
            "pbrMetallicRoughness" : {
                "baseColorFactor" : [
                    0.749019980430603,
                    0.749019980430603,
                    0.749019980430603,
                    1
                ],
                "metallicFactor" : 0,
                "roughnessFactor" : 0.45227745175361633
            }
        }
    ],
    "meshes" : [
        {
            "name" : "Assembly2_Wexteras_hus (1) (1).001",
            "primitives" : [
                {
                    "attributes" : {
                        "POSITION" : 0,
                        "NORMAL" : 1,
                        "TEXCOORD_0" : 2
                    },
                    "indices" : 3,
                    "material" : 0
                }
            ]
        },
        {
            "name" : "Assembly2_Wexteras_hus_topp (1)",
            "primitives" : [
                {
                    "attributes" : {
                        "POSITION" : 4,
                        "NORMAL" : 5,
                        "TEXCOORD_0" : 6
                    },
                    "indices" : 7,
                    "material" : 1
                }
            ]
        },
        {
            "name" : "Assembly2_Wexteras_hus_tak.001",
            "primitives" : [
                {
                    "attributes" : {
                        "POSITION" : 8,
                        "NORMAL" : 9,
                        "TEXCOORD_0" : 10
                    },
                    "indices" : 11,
                    "material" : 2
                }
            ]
        }
    ],
    "accessors" : [
        {
            "bufferView" : 0,
            "componentType" : 5126,
            "count" : 2270,
            "max" : [
                0.14207300543785095,
                0.13750000298023224,
                0.028006000444293022
            ],
            "min" : [
                -0.13292700052261353,
                -0.13750000298023224,
                -0.03649400174617767
            ],
            "type" : "VEC3"
        },
        {
            "bufferView" : 1,
            "componentType" : 5126,
            "count" : 2270,
            "type" : "VEC3"
        },
        {
            "bufferView" : 2,
            "componentType" : 5126,
            "count" : 2270,
            "type" : "VEC2"
        },
        {
            "bufferView" : 3,
            "componentType" : 5123,
            "count" : 8208,
            "type" : "SCALAR"
        },
        {
            "bufferView" : 4,
            "componentType" : 5126,
            "count" : 2765,
            "max" : [
                0.14207300543785095,
                0.13750000298023224,
                -0.024493999779224396
            ],
            "min" : [
                -0.13292700052261353,
                -0.13750000298023224,
                -0.17249399423599243
            ],
            "type" : "VEC3"
        },
        {
            "bufferView" : 5,
            "componentType" : 5126,
            "count" : 2765,
            "type" : "VEC3"
        },
        {
            "bufferView" : 6,
            "componentType" : 5126,
            "count" : 2765,
            "type" : "VEC2"
        },
        {
            "bufferView" : 7,
            "componentType" : 5123,
            "count" : 9216,
            "type" : "SCALAR"
        },
        {
            "bufferView" : 8,
            "componentType" : 5126,
            "count" : 695,
            "max" : [
                0.14207300543785095,
                0.13750000298023224,
                -0.16449399292469025
            ],
            "min" : [
                -0.13292700052261353,
                -0.13750000298023224,
                -0.17649400234222412
            ],
            "type" : "VEC3"
        },
        {
            "bufferView" : 9,
            "componentType" : 5126,
            "count" : 695,
            "type" : "VEC3"
        },
        {
            "bufferView" : 10,
            "componentType" : 5126,
            "count" : 695,
            "type" : "VEC2"
        },
        {
            "bufferView" : 11,
            "componentType" : 5123,
            "count" : 2412,
            "type" : "SCALAR"
        }
    ],
    "bufferViews" : [
        {
            "buffer" : 0,
            "byteLength" : 27240,
            "byteOffset" : 0,
            "target" : 34962
        },
        {
            "buffer" : 0,
            "byteLength" : 27240,
            "byteOffset" : 27240,
            "target" : 34962
        },
        {
            "buffer" : 0,
            "byteLength" : 18160,
            "byteOffset" : 54480,
            "target" : 34962
        },
        {
            "buffer" : 0,
            "byteLength" : 16416,
            "byteOffset" : 72640,
            "target" : 34963
        },
        {
            "buffer" : 0,
            "byteLength" : 33180,
            "byteOffset" : 89056,
            "target" : 34962
        },
        {
            "buffer" : 0,
            "byteLength" : 33180,
            "byteOffset" : 122236,
            "target" : 34962
        },
        {
            "buffer" : 0,
            "byteLength" : 22120,
            "byteOffset" : 155416,
            "target" : 34962
        },
        {
            "buffer" : 0,
            "byteLength" : 18432,
            "byteOffset" : 177536,
            "target" : 34963
        },
        {
            "buffer" : 0,
            "byteLength" : 8340,
            "byteOffset" : 195968,
            "target" : 34962
        },
        {
            "buffer" : 0,
            "byteLength" : 8340,
            "byteOffset" : 204308,
            "target" : 34962
        },
        {
            "buffer" : 0,
            "byteLength" : 5560,
            "byteOffset" : 212648,
            "target" : 34962
        },
        {
            "buffer" : 0,
            "byteLength" : 4824,
            "byteOffset" : 218208,
            "target" : 34963
        }
    ],
    "buffers" : [
        {
            "byteLength" : 223032,
            "uri" : "data:application/octet-stream;base64,"
        }
    ]
}
